<svg width="264" height="264" viewBox="0 0 264 264" fill="none" xmlns="http://www.w3.org/2000/svg">
<g clip-path="url(#clip0_445_37)">
<path d="M108.533 233.2C42.5333 222.933 9.65937 252.418 0 264V224.555C15.8903 204.176 38.8642 194.301 48.3649 191.91C109.804 176.725 138.486 159.759 147.339 123.53C163.461 57.5607 184.8 29.3333 244.933 0H264V76.6651C237.6 101.2 214.056 108.533 203.867 140.8C193.677 173.067 183.321 244.834 108.533 233.2Z" fill="#59FF88"/>
<path d="M52.8 149.6C17.6 164.421 9.65937 176.151 0 187.733V205.333V224.555C15.8903 204.176 38.8642 194.301 48.3649 191.91C109.804 176.725 138.486 159.759 147.339 123.53C163.461 57.5607 184.8 29.3333 244.933 0H221.467H176C151.067 8.8 139.564 31.3925 129.067 63.0667C110 120.596 80.6667 137.867 52.8 149.6Z" fill="#05902E"/>
</g>
<defs>
<clipPath id="clip0_445_37">
<rect width="264" height="264" fill="white"/>
</clipPath>
</defs>
</svg>
